<svg width="390" height="804" viewBox="-2.54869 0 390 804" fill="none" xmlns="http://www.w3.org/2000/svg">
<style>
    circle:nth-of-type(3) {
      animation: march 30s linear infinite;
    }
    circle:nth-of-type(4) {
      stroke-dasharray: 8 6;
      animation: march 40s linear infinite reverse;
    }
    path:nth-of-type(2) {
      animation: march 60s linear infinite; 
    }
    
    /* Robust Spinning Groups centered at (0,0) local coords */
    /* .spin-cw/ccw rotate the container. The dots inside are static at radius dist */
    .spin-cw {
      transform-origin: 0px 0px; 
      animation: spin-anim 20s linear infinite;
    }
    .spin-ccw {
      transform-origin: 0px 0px;
      animation: spin-anim 30s linear infinite reverse;
    }

    /* Existing Dots */
    circle:nth-of-type(5),
    circle:nth-of-type(6),
    circle:nth-of-type(7),
    ellipse:nth-of-type(1) {
      transform-origin: -2.55px 411.94px;
      animation: spin-anim 50s linear infinite;
    }
    @keyframes march {
      from { stroke-dashoffset: 0; }
      to { stroke-dashoffset: 200; }
    }
    @keyframes spin-anim {
      from { transform: rotate(0deg); }
      to { transform: rotate(360deg); }
    }
</style>
<circle cx="-2.54869" cy="411.935" r="106.478" transform="rotate(150 -2.54869 411.935)" fill="#4DC1C2"/>
<circle cx="-2.54869" cy="411.935" r="106.478" transform="rotate(150 -2.54869 411.935)" fill="url(#paint0_linear_1251_335)"/>
<!-- Inner Ring: Center(-9.32933, 401.019) R(133.737) -->
<circle cx="-9.32933" cy="401.019" r="133.737" stroke="#5797A3" stroke-width="1.5" stroke-dasharray="4 4"/>
<!-- Outer Ring: Center(-24.3802, 425.496) R(223.643) -->
<circle cx="-24.3802" cy="425.496" r="223.643" stroke="#5797A3" stroke-width="1.5" stroke-dasharray="8 6"/>

<!-- NEW STRUCTURE: Local Coordinate Systems for Perfect Alignment -->

<!-- Inner Dots System: Translated to Inner Ring Center -->
<g transform="translate(-9.32933, 401.019)">
  <g class="spin-cw">
    <!-- Dot 1 (Orange) - 0 deg -->
    <circle cx="0" cy="-133.737" r="5" fill="#F8951C" /> 
    <!-- Dot 2 (Pink) - 120 deg -->
    <circle cx="0" cy="-133.737" r="5" fill="#B83F78" transform="rotate(120)" />
    <!-- Dot 3 (Violet) - 240 deg -->
    <circle cx="0" cy="-133.737" r="5" fill="#5D3681" transform="rotate(240)" />
  </g>
</g>

<!-- Outer Dots System: Translated to Outer Ring Center -->
<g transform="translate(-24.3802, 425.496)">
  <g class="spin-ccw">
    <!-- Dot 1 (Violet) - 60 deg offset -->
    <circle cx="0" cy="-223.643" r="6" fill="#5D3681" transform="rotate(60)" />
    <!-- Dot 2 (Orange) - 180 deg offset -->
    <circle cx="0" cy="-223.643" r="6" fill="#F8951C" transform="rotate(180)" />
    <!-- Dot 3 (Pink) - 300 deg offset -->
    <circle cx="0" cy="-223.643" r="6" fill="#B83F78" transform="rotate(300)" />
  </g>
</g>



<path id="spiral_inner" d="M158.35 629.079C32.3757 701.811 -128.806 658.482 -201.657 532.3C-274.509 406.117 -231.442 244.866 -105.467 172.134C20.5076 99.4026 181.689 142.731 254.54 268.914C327.392 395.096 284.325 556.348 158.35 629.079Z" stroke="#5797A3"/>
<path id="spiral_outer" d="M-269.559 574.084C-270.331 573.01 -271.097 571.931 -271.857 570.844L-271.448 570.559C-272.207 569.475 -272.959 568.384 -273.704 567.287L-274.116 567.567C-274.863 566.468 -275.603 565.362 -276.337 564.25L-275.923 563.976C-276.653 562.869 -277.377 561.756 -278.095 560.637L-278.514 560.906C-279.227 559.793 -279.934 558.673 -280.635 557.548L-280.212 557.284C-280.911 556.161 -281.605 555.031 -282.292 553.895L-282.718 554.152C-283.406 553.015 -284.088 551.872 -284.762 550.721L-284.763 550.721L-284.332 550.467C-284.668 549.893 -285.004 549.317 -285.337 548.739C-285.671 548.162 -286.002 547.584 -286.331 547.005L-286.765 547.252C-287.424 546.093 -288.073 544.93 -288.715 543.766L-288.279 543.524C-288.92 542.362 -289.551 541.197 -290.174 540.029L-290.613 540.265C-291.238 539.095 -291.854 537.923 -292.461 536.748L-292.02 536.519C-292.63 535.337 -293.232 534.154 -293.825 532.968L-294.269 533.191C-294.865 532 -295.453 530.806 -296.031 529.609L-295.583 529.392C-296.16 528.198 -296.729 527.001 -297.289 525.802L-297.74 526.013C-298.301 524.812 -298.853 523.61 -299.396 522.405L-298.942 522.199C-299.489 520.985 -300.027 519.769 -300.556 518.551L-301.015 518.75C-301.546 517.53 -302.066 516.307 -302.578 515.082L-302.118 514.889C-302.63 513.666 -303.133 512.44 -303.628 511.214L-304.09 511.401C-304.586 510.17 -305.072 508.937 -305.55 507.702L-305.086 507.521C-305.567 506.28 -306.039 505.037 -306.501 503.793L-306.968 503.968C-307.431 502.721 -307.886 501.473 -308.331 500.223L-307.862 500.055C-308.307 498.807 -308.743 497.557 -309.17 496.306L-309.641 496.467C-310.071 495.209 -310.491 493.949 -310.903 492.687L-310.428 492.532C-310.84 491.268 -311.244 490.003 -311.638 488.736L-312.113 488.884C-312.507 487.616 -312.893 486.345 -313.27 485.074L-312.793 484.931C-313.169 483.662 -313.535 482.39 -313.894 481.118L-314.373 481.253C-314.734 479.971 -315.086 478.689 -315.429 477.405L-314.947 477.276C-315.289 475.993 -315.623 474.708 -315.947 473.423L-316.431 473.545C-316.756 472.257 -317.07 470.968 -317.377 469.678L-316.892 469.563C-317.199 468.273 -317.497 466.983 -317.785 465.692L-318.271 465.801C-318.562 464.501 -318.843 463.201 -319.116 461.9L-318.629 461.798C-318.9 460.499 -319.163 459.198 -319.417 457.898L-319.906 457.994C-320.16 456.691 -320.405 455.387 -320.641 454.083L-320.151 453.994C-320.387 452.688 -320.614 451.381 -320.833 450.074L-321.324 450.157C-321.543 448.845 -321.753 447.532 -321.953 446.219L-321.461 446.143C-321.661 444.832 -321.852 443.52 -322.035 442.208L-322.529 442.277C-322.711 440.963 -322.886 439.649 -323.051 438.334L-322.556 438.271C-322.721 436.953 -322.877 435.634 -323.024 434.315L-323.519 434.371C-323.667 433.05 -323.803 431.728 -323.932 430.406L-323.437 430.358C-323.566 429.038 -323.686 427.719 -323.797 426.399L-324.293 426.441C-324.404 425.117 -324.507 423.794 -324.6 422.471L-324.103 422.435C-324.196 421.111 -324.28 419.786 -324.355 418.461L-324.852 418.49C-324.928 417.164 -324.994 415.837 -325.051 414.511L-324.553 414.489C-324.61 413.165 -324.658 411.841 -324.697 410.517L-325.194 410.533C-325.234 409.204 -325.265 407.876 -325.286 406.548L-324.787 406.539C-324.808 405.212 -324.821 403.885 -324.824 402.559L-325.324 402.561C-325.327 401.233 -325.32 399.905 -325.305 398.578L-324.807 398.584C-324.792 397.258 -324.768 395.933 -324.736 394.608L-325.234 394.596C-325.201 393.267 -325.159 391.938 -325.108 390.61L-324.611 390.63C-324.56 389.305 -324.5 387.98 -324.432 386.657L-324.931 386.63C-324.862 385.304 -324.783 383.979 -324.696 382.655L-324.199 382.687C-324.112 381.363 -324.017 380.04 -323.913 378.719L-324.41 378.679C-324.305 377.355 -324.191 376.031 -324.069 374.709L-323.573 374.755C-323.451 373.435 -323.32 372.115 -323.18 370.797L-323.677 370.744C-323.537 369.424 -323.387 368.105 -323.229 366.787L-322.734 366.846C-322.577 365.529 -322.41 364.213 -322.234 362.898L-322.728 362.833C-322.552 361.516 -322.368 360.2 -322.175 358.886L-321.682 358.959C-321.489 357.647 -321.286 356.337 -321.076 355.028L-321.568 354.95C-321.357 353.638 -321.137 352.328 -320.908 351.02L-320.418 351.105C-320.189 349.799 -319.952 348.494 -319.706 347.191L-320.195 347.099C-319.948 345.794 -319.694 344.49 -319.43 343.189L-318.941 343.288C-318.678 341.988 -318.406 340.691 -318.126 339.395L-318.613 339.29C-318.331 337.992 -318.041 336.695 -317.742 335.401L-317.256 335.513C-316.958 334.221 -316.651 332.931 -316.335 331.643L-316.82 331.525C-316.503 330.235 -316.179 328.947 -315.845 327.662L-315.363 327.787C-315.03 326.503 -314.688 325.222 -314.338 323.943L-314.818 323.811C-314.468 322.53 -314.107 321.252 -313.739 319.975L-313.261 320.113C-312.894 318.839 -312.517 317.568 -312.133 316.299L-312.61 316.155C-312.224 314.883 -311.832 313.615 -311.43 312.349L-310.954 312.499C-310.552 311.236 -310.142 309.975 -309.724 308.717L-310.197 308.56C-309.778 307.3 -309.35 306.042 -308.914 304.788L-308.443 304.951C-308.008 303.699 -307.564 302.45 -307.111 301.203L-307.58 301.033C-307.127 299.784 -306.665 298.538 -306.195 297.296L-305.729 297.473C-305.26 296.233 -304.783 294.997 -304.297 293.763L-304.761 293.58C-304.275 292.345 -303.779 291.112 -303.276 289.883L-302.815 290.071C-302.312 288.844 -301.801 287.62 -301.282 286.399L-301.741 286.204C-301.222 284.982 -300.695 283.764 -300.158 282.549L-299.702 282.75C-299.167 281.537 -298.623 280.328 -298.071 279.122L-298.525 278.915C-297.972 277.707 -297.412 276.503 -296.843 275.302L-296.392 275.515C-295.824 274.317 -295.249 273.123 -294.664 271.932L-295.112 271.712C-294.527 270.521 -293.934 269.333 -293.333 268.149L-292.889 268.374C-292.289 267.192 -291.68 266.014 -291.064 264.84L-291.506 264.608C-290.888 263.431 -290.263 262.259 -289.63 261.09L-289.191 261.328C-288.56 260.163 -287.921 259.002 -287.273 257.845L-287.708 257.602C-287.059 256.444 -286.403 255.289 -285.739 254.139L-285.307 254.389C-284.644 253.241 -283.973 252.097 -283.293 250.957L-283.722 250.701C-283.042 249.56 -282.353 248.424 -281.657 247.291L-281.233 247.551C-280.54 246.423 -279.838 245.3 -279.129 244.181L-279.55 243.914C-278.839 242.792 -278.122 241.674 -277.395 240.561L-276.978 240.835C-276.253 239.724 -275.52 238.618 -274.779 237.516L-275.193 237.238C-274.453 236.136 -273.704 235.04 -272.948 233.948L-272.539 234.231C-271.785 233.143 -271.024 232.058 -270.254 230.979L-270.659 230.689C-269.889 229.608 -269.11 228.531 -268.324 227.459L-267.923 227.754C-267.138 226.684 -266.346 225.618 -265.546 224.558L-265.945 224.256C-265.146 223.198 -264.339 222.146 -263.526 221.098L-263.131 221.404C-262.319 220.358 -261.5 219.316 -260.673 218.28L-261.061 217.968C-260.233 216.93 -259.396 215.897 -258.552 214.869L-258.167 215.186C-257.326 214.161 -256.478 213.141 -255.622 212.127L-256.002 211.805C-255.147 210.792 -254.285 209.784 -253.415 208.782L-253.039 209.109C-252.171 208.108 -251.294 207.113 -250.411 206.122L-250.783 205.79C-249.898 204.798 -249.005 203.812 -248.105 202.83L-247.738 203.167C-246.844 202.192 -245.943 201.222 -245.034 200.257L-245.396 199.916C-244.486 198.951 -243.57 197.991 -242.646 197.038L-242.288 197.384C-241.366 196.432 -240.437 195.485 -239.5 194.544L-239.853 194.191C-238.915 193.249 -237.97 192.313 -237.018 191.383L-236.669 191.74C-235.724 190.816 -234.772 189.898 -233.812 188.985L-234.155 188.624C-233.194 187.71 -232.226 186.801 -231.251 185.898L-230.912 186.264C-229.939 185.363 -228.958 184.467 -227.97 183.578L-228.303 183.206C-227.318 182.319 -226.325 181.437 -225.325 180.561L-224.996 180.937C-224.002 180.066 -223 179.201 -221.992 178.341L-222.314 177.961C-221.304 177.1 -220.287 176.246 -219.264 175.397L-218.946 175.781C-217.924 174.934 -216.895 174.093 -215.859 173.258L-216.171 172.869C-215.14 172.038 -214.103 171.212 -213.058 170.393L-212.751 170.787C-211.71 169.971 -210.663 169.16 -209.608 168.357L-209.91 167.959C-208.854 167.154 -207.792 166.355 -206.722 165.563L-206.426 165.965C-205.359 165.174 -204.285 164.389 -203.204 163.611L-203.495 163.205C-202.422 162.433 -201.343 161.667 -200.257 160.907L-199.972 161.316C-198.889 160.557 -197.798 159.805 -196.701 159.059L-196.981 158.646C-195.882 157.899 -194.776 157.158 -193.664 156.424L-193.39 156.84C-192.284 156.109 -191.171 155.384 -190.052 154.666L-190.321 154.246C-189.208 153.532 -188.089 152.825 -186.963 152.124L-186.701 152.548C-185.577 151.848 -184.448 151.155 -183.312 150.468L-183.569 150.04C-182.431 149.352 -181.286 148.672 -180.135 147.997L-179.884 148.428C-179.31 148.092 -178.734 147.756 -178.156 147.423C-177.579 147.089 -177.001 146.758 -176.422 146.429L-176.668 145.995C-175.509 145.336 -174.347 144.685 -173.183 144.044L-172.942 144.481C-171.779 143.84 -170.613 143.208 -169.445 142.585L-169.68 142.146C-168.51 141.521 -167.338 140.906 -166.163 140.299L-165.935 140.742C-164.753 140.132 -163.57 139.53 -162.384 138.938L-162.606 138.492C-161.414 137.897 -160.22 137.31 -159.024 136.732L-158.806 137.18C-157.612 136.603 -156.415 136.036 -155.217 135.476L-155.427 135.024C-154.226 134.464 -153.023 133.912 -151.817 133.37L-151.613 133.825C-150.399 133.278 -149.183 132.74 -147.964 132.212L-148.163 131.754C-146.942 131.224 -145.718 130.703 -144.493 130.191L-144.3 130.651C-143.077 130.14 -141.852 129.638 -140.626 129.145L-140.812 128.682C-139.58 128.187 -138.346 127.702 -137.111 127.224L-136.932 127.689C-135.691 127.21 -134.448 126.739 -133.203 126.277L-133.376 125.81C-132.129 125.347 -130.88 124.894 -129.629 124.449L-129.463 124.919C-128.214 124.476 -126.964 124.041 -125.713 123.616L-125.873 123.142C-124.614 122.714 -123.353 122.296 -122.091 121.886L-121.938 122.36C-120.674 121.949 -119.407 121.548 -118.14 121.155L-118.288 120.679C-117.018 120.286 -115.748 119.902 -114.475 119.526L-114.335 120.005C-113.065 119.63 -111.793 119.264 -110.521 118.908L-110.655 118.427C-109.373 118.068 -108.089 117.717 -106.804 117.375L-106.676 117.859C-105.393 117.518 -104.108 117.187 -102.823 116.864L-102.943 116.38C-101.655 116.057 -100.366 115.743 -99.0755 115.438L-98.9616 115.923C-97.6718 115.618 -96.3804 115.322 -95.0886 115.035L-95.1956 114.549C-93.8962 114.26 -92.5961 113.98 -91.2948 113.71L-91.1933 114.198C-89.8942 113.928 -88.5942 113.667 -87.2934 113.416L-87.388 112.926C-86.0845 112.673 -84.7802 112.431 -83.4752 112.197L-83.388 112.688C-82.0817 112.453 -80.7745 112.229 -79.4668 112.013L-79.548 111.52C-78.2352 111.304 -76.9218 111.096 -75.6079 110.898L-75.5346 111.39C-74.2233 111.192 -72.9109 111.003 -71.5986 110.822L-71.6664 110.328C-70.3518 110.148 -69.0369 109.975 -67.7215 109.813L-67.6607 110.309C-66.3422 110.146 -65.023 109.993 -63.7039 109.848L-63.7577 109.352C-62.4365 109.208 -61.115 109.072 -59.7933 108.946L-59.746 109.442C-58.4265 109.315 -57.1068 109.198 -55.787 109.09L-55.8269 108.593C-54.5029 108.484 -53.1789 108.384 -51.8547 108.293L-51.8217 108.792C-50.4973 108.701 -49.1728 108.619 -47.8485 108.547L-47.8744 108.049C-46.5479 107.976 -45.2215 107.913 -43.8952 107.859L-43.875 108.357C-42.5512 108.302 -41.2277 108.257 -39.9044 108.22L-39.9168 107.722C-38.5879 107.686 -37.2593 107.658 -35.9311 107.639L-35.9248 108.139C-34.5982 108.12 -33.2717 108.111 -31.946 108.11L-31.9453 107.611C-30.617 107.611 -29.2891 107.62 -27.9618 107.638L-27.9695 108.136C-26.6439 108.154 -25.3183 108.18 -23.9939 108.216L-23.9805 107.717C-22.6515 107.753 -21.3233 107.798 -19.9958 107.851L-20.0162 108.349C-18.6911 108.403 -17.3668 108.466 -16.0432 108.537L-16.0154 108.039C-14.6895 108.11 -13.3646 108.191 -12.0405 108.281L-12.0745 108.779C-10.7511 108.868 -9.42867 108.967 -8.10726 109.074L-8.06623 108.577C-6.74186 108.684 -5.41848 108.8 -4.09625 108.925L-4.14297 109.423C-2.82326 109.548 -1.50468 109.682 -0.187295 109.825L-0.132211 109.329C1.18799 109.472 2.50689 109.624 3.82456 109.785L3.76329 110.281C5.08006 110.442 6.39559 110.611 7.70964 110.79L7.77842 110.296C9.09458 110.475 10.4094 110.661 11.7227 110.858L11.6477 111.351C12.9589 111.547 14.2688 111.753 15.5769 111.967L15.6584 111.474C16.9692 111.688 18.2783 111.912 19.5859 112.143L19.4986 112.635C20.8043 112.866 22.1082 113.106 23.4104 113.355L23.5052 112.865C24.8097 113.115 26.1125 113.373 27.4133 113.64L27.3123 114.129C28.611 114.396 29.9083 114.671 31.2032 114.955L31.3109 114.467C32.6083 114.752 33.9035 115.046 35.1969 115.348L35.0834 115.833C36.3745 116.135 37.6635 116.445 38.9504 116.764L39.0706 116.281C40.3599 116.6 41.6473 116.927 42.9321 117.264L42.8049 117.747C44.0875 118.083 45.3683 118.427 46.6462 118.781L46.7796 118.299C48.0594 118.653 49.3366 119.016 50.6116 119.387L50.4723 119.867C51.7454 120.237 53.0159 120.616 54.284 121.004L54.4312 120.527C55.7015 120.915 56.9696 121.31 58.2346 121.716L58.0812 122.192C59.3435 122.597 60.6036 123.01 61.8605 123.432L62.0194 122.959C63.2784 123.381 64.5348 123.811 65.7882 124.25L65.6227 124.721C66.8741 125.16 68.1226 125.607 69.3683 126.062L69.5397 125.594C70.7871 126.05 72.0319 126.514 73.2735 126.986L73.0954 127.454C74.3338 127.925 75.5692 128.406 76.8015 128.894L76.9858 128.43C78.2206 128.92 79.4518 129.419 80.6803 129.925L80.4896 130.386C81.7157 130.891 82.9391 131.404 84.1588 131.926L84.3553 131.468C85.5756 131.99 86.7932 132.519 88.0069 133.058L88.006 133.059L87.8029 133.515C89.0143 134.053 90.2227 134.6 91.4272 135.154L91.6367 134.701C92.843 135.256 94.0456 135.82 95.2449 136.392L95.03 136.842C96.2267 137.412 97.4207 137.991 98.6103 138.578L98.831 138.13C100.021 138.718 101.208 139.312 102.391 139.916L102.164 140.362C103.344 140.964 104.521 141.575 105.694 142.193L105.927 141.752C107.102 142.372 108.273 143 109.441 143.636L109.202 144.074C110.365 144.708 111.525 145.351 112.68 146.001L112.926 145.565C114.083 146.216 115.236 146.875 116.384 147.541L116.133 147.973C117.279 148.639 118.421 149.313 119.56 149.994L119.818 149.567C120.958 150.249 122.093 150.94 123.224 151.638L122.961 152.062C124.088 152.757 125.21 153.461 126.328 154.173L126.597 153.751C127.717 154.464 128.833 155.185 129.945 155.913L129.669 156.33C130.778 157.058 131.884 157.793 132.984 158.536L133.264 158.122C134.364 158.865 135.459 159.615 136.55 160.373L136.264 160.783C137.352 161.539 138.435 162.302 139.513 163.074L139.804 162.668C140.884 163.44 141.96 164.22 143.031 165.009L142.734 165.41C143.802 166.197 144.866 166.992 145.925 167.794L146.228 167.396C147.284 168.196 148.335 169.004 149.382 169.819L149.075 170.213C150.12 171.027 151.16 171.848 152.195 172.677L152.508 172.288C153.545 173.119 154.577 173.957 155.603 174.803L155.286 175.188C156.308 176.031 157.326 176.88 158.339 177.738L158.662 177.357C159.674 178.213 160.68 179.078 161.681 179.949L161.353 180.326C162.353 181.196 163.347 182.073 164.336 182.958L164.67 182.587C165.661 183.473 166.646 184.367 167.625 185.268L167.288 185.635C168.262 186.53 169.23 187.433 170.194 188.343L170.537 187.981C171.501 188.892 172.459 189.81 173.412 190.735L173.063 191.092C174.014 192.016 174.96 192.948 175.9 193.886L176.254 193.533C177.195 194.471 178.13 195.418 179.059 196.371L178.701 196.719C179.623 197.665 180.541 198.618 181.452 199.579L181.815 199.236C182.728 200.198 183.635 201.167 184.537 202.144L184.17 202.482C185.07 203.456 185.965 204.439 186.853 205.427L187.226 205.093C188.113 206.08 188.993 207.074 189.868 208.075L189.492 208.403C190.362 209.399 191.226 210.401 192.085 211.41L192.466 211.088C193.325 212.098 194.18 213.116 195.028 214.14L194.642 214.459C195.488 215.482 196.329 216.511 197.164 217.547L197.552 217.236C198.383 218.268 199.208 219.305 200.026 220.35L199.632 220.657C200.448 221.699 201.257 222.747 202.06 223.801L202.458 223.5C203.262 224.556 204.061 225.618 204.853 226.688L204.45 226.986C205.24 228.053 206.025 229.128 206.802 230.208L207.209 229.916C207.981 230.989 208.747 232.069 209.506 233.156L209.096 233.441C209.854 234.525 210.606 235.616 211.352 236.713L211.765 236.433C212.512 237.532 213.253 238.638 213.987 239.75L213.57 240.024C214.301 241.131 215.025 242.244 215.742 243.363L216.162 243.095C216.876 244.208 217.584 245.326 218.285 246.452L217.86 246.715C218.56 247.839 219.253 248.969 219.939 250.105L220.368 249.847C221.055 250.985 221.737 252.129 222.411 253.279L221.979 253.533L222.984 255.26C223.318 255.837 223.649 256.416 223.978 256.995L224.413 256.748L224.414 256.748C225.073 257.908 225.723 259.07 226.365 260.234L225.927 260.476C226.567 261.638 227.199 262.803 227.823 263.97L228.263 263.735C228.888 264.905 229.503 266.078 230.11 267.252L229.667 267.481C230.277 268.662 230.879 269.846 231.472 271.032L231.918 270.809C232.514 272 233.102 273.195 233.68 274.391L233.23 274.608C233.807 275.802 234.376 276.999 234.936 278.198L235.39 277.987C235.95 279.188 236.502 280.39 237.046 281.595L236.589 281.801C237.136 283.015 237.674 284.231 238.204 285.449L238.662 285.249L238.664 285.25C239.194 286.47 239.714 287.694 240.227 288.918L239.767 289.111C240.278 290.334 240.782 291.559 241.276 292.786L241.739 292.599C242.235 293.83 242.721 295.063 243.199 296.298L242.735 296.478C243.215 297.719 243.686 298.962 244.148 300.206L244.617 300.032C245.081 301.279 245.535 302.528 245.98 303.778L245.51 303.945C245.955 305.193 246.39 306.443 246.817 307.694L247.29 307.533C247.72 308.791 248.141 310.051 248.552 311.313L248.551 311.312L248.075 311.467C248.488 312.731 248.891 313.997 249.285 315.264L249.761 315.116C250.156 316.385 250.542 317.655 250.919 318.927L250.44 319.069C250.816 320.339 251.183 321.61 251.541 322.882L252.022 322.746C252.383 324.028 252.735 325.311 253.077 326.596L252.594 326.724C252.937 328.007 253.27 329.292 253.595 330.578L254.079 330.454C254.404 331.742 254.72 333.032 255.027 334.322L254.541 334.437C254.847 335.726 255.145 337.017 255.434 338.308L255.92 338.199C256.128 339.127 256.332 340.056 256.53 340.984L256.765 342.1L256.276 342.202C256.548 343.501 256.81 344.801 257.064 346.102L257.554 346.006C257.809 347.309 258.054 348.613 258.29 349.917L257.798 350.007C258.034 351.312 258.261 352.618 258.48 353.925L258.973 353.844C259.192 355.156 259.401 356.469 259.602 357.782L259.109 357.857C259.309 359.168 259.501 360.479 259.683 361.791L260.178 361.724C260.36 363.038 260.535 364.352 260.699 365.667L260.203 365.729C260.368 367.047 260.525 368.366 260.672 369.685L261.168 369.629C261.316 370.95 261.453 372.272 261.582 373.594L261.085 373.642C261.213 374.962 261.333 376.281 261.444 377.601L261.942 377.559C262.053 378.883 262.156 380.206 262.249 381.53L261.75 381.565C261.844 382.889 261.927 384.214 262.002 385.539L262.501 385.51C262.576 386.837 262.642 388.164 262.7 389.49L262.201 389.511C262.258 390.835 262.306 392.159 262.345 393.483L262.844 393.467C262.883 394.796 262.914 396.125 262.935 397.453L262.435 397.461C262.456 398.788 262.469 400.114 262.472 401.44L262.972 401.439C262.975 402.767 262.969 404.095 262.954 405.422L262.454 405.417C262.439 406.742 262.416 408.067 262.383 409.392L262.882 409.405C262.85 410.733 262.808 412.061 262.757 413.389L262.258 413.37C262.207 414.695 262.148 416.02 262.079 417.343L262.578 417.37L262.58 417.37C262.511 418.696 262.432 420.021 262.345 421.345L261.847 421.313C261.761 422.636 261.665 423.959 261.56 425.281L262.058 425.321C261.954 426.646 261.841 427.969 261.719 429.291L261.221 429.245C261.099 430.566 260.968 431.885 260.828 433.203L261.325 433.256L261.326 433.256C261.186 434.577 261.036 435.896 260.878 437.214L260.382 437.154C260.224 438.471 260.057 439.787 259.882 441.102L260.377 441.168C260.201 442.485 260.017 443.8 259.823 445.114L259.329 445.042C259.136 446.353 258.935 447.663 258.724 448.971L259.217 449.051C259.006 450.362 258.786 451.672 258.558 452.98L258.065 452.895C257.837 454.201 257.6 455.506 257.354 456.809L257.844 456.901C257.598 458.207 257.343 459.51 257.079 460.812L256.59 460.712C256.326 462.011 256.054 463.309 255.773 464.605L256.262 464.711L256.263 464.711C255.981 466.009 255.689 467.305 255.39 468.6L254.904 468.487C254.606 469.779 254.298 471.069 253.983 472.357L254.468 472.476C254.152 473.766 253.828 475.053 253.494 476.339L253.01 476.213C252.677 477.497 252.335 478.778 251.985 480.057L252.467 480.189C252.117 481.47 251.757 482.749 251.389 484.025L250.909 483.887C250.542 485.161 250.166 486.432 249.781 487.701L250.259 487.845C249.874 489.117 249.481 490.386 249.078 491.652L248.602 491.5C248.2 492.763 247.79 494.025 247.371 495.283L247.846 495.441C247.427 496.701 246.999 497.958 246.563 499.213L246.09 499.048C245.655 500.3 245.211 501.55 244.759 502.797L245.229 502.968C244.776 504.216 244.314 505.461 243.844 506.703L243.377 506.527C242.908 507.766 242.43 509.003 241.945 510.237L242.41 510.42C241.924 511.656 241.428 512.888 240.925 514.117L240.463 513.928C239.961 515.156 239.45 516.38 238.931 517.601L239.39 517.797C238.871 519.018 238.343 520.237 237.807 521.452L237.35 521.25C236.815 522.462 236.271 523.672 235.72 524.877L236.174 525.085C235.621 526.293 235.061 527.498 234.491 528.699L234.04 528.485C233.472 529.683 232.896 530.877 232.312 532.068L232.76 532.287C232.175 533.479 231.584 534.668 230.983 535.852L230.536 535.626C229.937 536.808 229.328 537.985 228.712 539.16L229.155 539.393C228.537 540.569 227.912 541.742 227.278 542.91L226.84 542.672C226.208 543.837 225.568 544.998 224.921 546.155L225.357 546.398C224.708 547.556 224.052 548.711 223.388 549.861L222.955 549.612C222.292 550.759 221.62 551.903 220.941 553.043L221.371 553.299C220.691 554.44 220.002 555.577 219.306 556.709L218.88 556.448C218.187 557.576 217.486 558.7 216.777 559.819L217.199 560.086C216.488 561.208 215.771 562.325 215.045 563.438L214.626 563.165C213.901 564.276 213.167 565.382 212.427 566.484L212.843 566.762C212.102 567.864 211.353 568.96 210.597 570.053L210.186 569.769C209.432 570.858 208.671 571.942 207.902 573.021L208.308 573.311C207.538 574.392 206.76 575.469 205.974 576.541L205.571 576.246C204.786 577.316 203.994 578.382 203.193 579.442L203.592 579.743C202.794 580.801 201.988 581.854 201.175 582.902L200.78 582.596C199.968 583.642 199.148 584.684 198.32 585.721L198.71 586.031C197.881 587.07 197.045 588.103 196.201 589.132L195.815 588.815C194.974 589.839 194.126 590.859 193.27 591.873L193.652 592.195C192.797 593.208 191.934 594.216 191.064 595.219L190.687 594.891C189.818 595.892 188.942 596.888 188.058 597.878L188.432 598.21C187.547 599.202 186.654 600.188 185.755 601.169L185.387 600.832C184.492 601.808 183.59 602.778 182.682 603.743L183.045 604.084C182.135 605.049 181.219 606.009 180.295 606.963L179.936 606.616C179.013 607.568 178.084 608.515 177.147 609.456L177.501 609.809L177.502 609.809C176.565 610.751 175.618 611.686 174.666 612.617L174.317 612.26C173.372 613.184 172.419 614.103 171.46 615.015L171.804 615.377C170.843 616.291 169.875 617.2 168.9 618.102L168.56 617.735C167.587 618.637 166.606 619.533 165.618 620.422L165.953 620.793C164.966 621.681 163.974 622.563 162.974 623.44L162.643 623.063C161.649 623.934 160.648 624.8 159.64 625.659L159.964 626.039C158.954 626.9 157.936 627.755 156.912 628.603L156.594 628.219C155.571 629.066 154.542 629.907 153.506 630.743L153.82 631.131C152.789 631.962 151.751 632.788 150.707 633.607L150.398 633.213C149.358 634.029 148.31 634.84 147.256 635.643L147.559 636.04C146.503 636.845 145.441 637.645 144.371 638.438L144.073 638.036C143.006 638.826 141.932 639.611 140.852 640.389L141.144 640.795C140.071 641.568 138.992 642.334 137.906 643.094L137.62 642.684C136.536 643.443 135.445 644.195 134.348 644.941L134.63 645.354C133.531 646.101 132.426 646.842 131.314 647.576L131.039 647.16C129.932 647.891 128.819 648.616 127.7 649.334L127.97 649.754C126.857 650.468 125.738 651.175 124.613 651.876L124.348 651.453C123.225 652.152 122.095 652.845 120.959 653.532L121.218 653.96C120.08 654.648 118.935 655.329 117.784 656.003L117.532 655.572C116.957 655.909 116.381 656.244 115.804 656.577C115.226 656.911 114.648 657.242 114.069 657.571L114.317 658.005C113.158 658.664 111.996 659.315 110.831 659.957L110.589 659.519C109.426 660.16 108.261 660.792 107.093 661.415L107.329 661.855C106.159 662.479 104.987 663.094 103.813 663.701L103.582 663.258C102.401 663.868 101.217 664.47 100.031 665.062L100.255 665.508C99.0629 666.104 97.869 666.691 96.6725 667.269L96.4548 666.819C95.2603 667.396 94.063 667.964 92.864 668.524L93.0767 668.976C91.8754 669.536 90.6719 670.088 89.4663 670.631L89.2609 670.176C88.0467 670.722 86.8301 671.26 85.6117 671.788L85.812 672.247C84.5907 672.777 83.3668 673.297 82.1414 673.809L81.9488 673.348C80.7257 673.86 79.5001 674.362 78.2731 674.855L78.4606 675.318C77.2291 675.814 75.9953 676.299 74.76 676.776L74.5794 676.311C73.3383 676.79 72.0951 677.261 70.8503 677.723L71.0245 678.191C69.7774 678.653 68.5285 679.107 67.2779 679.551L67.1101 679.081C65.8618 679.524 64.6117 679.959 63.3601 680.384L63.5219 680.858C62.2631 681.286 61.0023 681.704 59.7402 682.114L59.5857 681.64C58.3215 682.051 57.055 682.452 55.7877 682.845L55.9367 683.322C54.6673 683.715 53.3964 684.099 52.1242 684.474L51.9822 683.996C50.7121 684.37 49.4408 684.736 48.1681 685.092L48.3032 685.573C47.021 685.932 45.738 686.284 44.4532 686.625L44.4527 686.624L44.324 686.141C43.0406 686.482 41.7559 686.814 40.4701 687.136L40.592 687.621C39.3039 687.944 38.0146 688.257 36.7244 688.562L36.6091 688.078C35.3193 688.382 34.0279 688.678 32.7361 688.965L32.8458 689.452C31.546 689.741 30.2453 690.02 28.9436 690.291L28.8416 689.802C27.5423 690.072 26.2419 690.333 24.9409 690.584L25.0368 691.075C23.7334 691.327 22.4291 691.57 21.1241 691.804L21.0355 691.312C19.7292 691.547 18.422 691.771 17.1143 691.987L17.1968 692.48C15.8841 692.697 14.5707 692.904 13.2567 693.103L13.1821 692.61C11.871 692.809 10.5591 692.997 9.24698 693.177L9.3152 693.672C8.00053 693.853 6.68539 694.024 5.3699 694.187L5.30822 693.691C3.98992 693.854 2.67121 694.007 1.35227 694.152L1.40656 694.648C0.0853309 694.793 -1.23618 694.928 -2.55787 695.055L-2.60647 694.559C-3.92594 694.685 -5.24571 694.802 -6.56546 694.91L-6.52424 695.408C-7.84797 695.516 -9.17175 695.616 -10.4956 695.707L-10.5307 695.208C-11.8552 695.299 -13.1797 695.381 -14.504 695.453L-14.4759 695.951C-15.8027 696.024 -17.1294 696.087 -18.4559 696.142L-18.4767 695.643C-19.8008 695.697 -21.125 695.742 -22.4486 695.779L-22.4344 696.278C-23.7633 696.315 -25.0918 696.343 -26.42 696.361L-26.4277 695.861C-27.7543 695.88 -29.0807 695.889 -30.4065 695.89L-30.4059 696.389C-31.7342 696.389 -33.062 696.38 -34.3893 696.363L-34.3829 695.864C-35.7085 695.846 -37.0334 695.819 -38.3578 695.784L-38.3707 696.283C-39.6996 696.247 -41.0278 696.203 -42.3553 696.149L-42.3359 695.649C-43.6611 695.596 -44.9857 695.534 -46.3093 695.463L-46.3362 695.961C-47.6621 695.889 -48.9871 695.808 -50.3112 695.719L-50.278 695.221C-51.6014 695.132 -52.9238 695.033 -54.2452 694.926L-54.2854 695.423C-55.6098 695.315 -56.9332 695.2 -58.2554 695.074L-58.2562 695.075L-58.2087 694.577C-59.5286 694.452 -60.8476 694.318 -62.1652 694.175L-62.2189 694.672C-63.5391 694.529 -64.858 694.376 -66.1757 694.215L-66.1158 693.719C-67.4326 693.558 -68.748 693.389 -70.0621 693.21L-70.1296 693.705C-71.4457 693.526 -72.7606 693.339 -74.0738 693.143L-74.0007 692.648C-75.3118 692.452 -76.6214 692.247 -77.9294 692.033L-78.0087 692.526C-79.3198 692.312 -80.6289 692.088 -81.9367 691.856L-81.8511 691.365C-83.1567 691.134 -84.4607 690.894 -85.7629 690.645L-85.8564 691.135C-87.1609 690.885 -88.4636 690.627 -89.7644 690.36L-89.6647 689.871C-90.9633 689.604 -92.2601 689.329 -93.5548 689.045L-93.6612 689.533C-94.9586 689.248 -96.2538 688.954 -97.5472 688.652L-97.435 688.166C-98.7263 687.865 -100.016 687.555 -101.303 687.236L-101.422 687.72C-102.711 687.401 -103.998 687.073 -105.283 686.737L-105.284 686.737L-105.157 686.254C-106.44 685.917 -107.72 685.572 -108.998 685.219L-109.131 685.701L-109.131 685.701C-110.411 685.347 -111.689 684.984 -112.964 684.613L-112.825 684.133C-114.098 683.763 -115.368 683.384 -116.636 682.996L-116.782 683.473C-118.052 683.085 -119.32 682.689 -120.585 682.283L-120.586 682.284L-120.434 681.808C-121.696 681.403 -122.955 680.99 -124.212 680.568L-124.371 681.042C-125.63 680.62 -126.886 680.188 -128.139 679.749L-127.975 679.279C-129.227 678.84 -130.475 678.393 -131.721 677.938L-131.891 678.406C-133.138 677.95 -134.383 677.486 -135.624 677.013L-135.447 676.546C-136.686 676.074 -137.921 675.595 -139.154 675.106L-139.337 675.57C-140.572 675.081 -141.803 674.582 -143.031 674.076L-142.842 673.615C-144.068 673.109 -145.292 672.596 -146.511 672.074L-146.706 672.533C-147.927 672.01 -149.144 671.481 -150.358 670.942L-150.359 670.941L-150.155 670.485C-151.367 669.947 -152.575 669.4 -153.78 668.846L-153.987 669.299C-155.193 668.744 -156.397 668.181 -157.596 667.609L-157.382 667.158C-158.579 666.588 -159.772 666.008 -160.962 665.421L-161.183 665.869C-162.373 665.282 -163.56 664.688 -164.742 664.085L-164.743 664.084L-164.516 663.638C-165.697 663.036 -166.874 662.425 -168.047 661.807L-168.278 662.248C-169.453 661.628 -170.625 661 -171.792 660.364L-171.555 659.926C-172.718 659.292 -173.877 658.65 -175.033 658L-175.276 658.435C-176.433 657.784 -177.586 657.127 -178.735 656.46L-178.735 656.459L-178.484 656.027C-179.631 655.361 -180.774 654.687 -181.913 654.005L-182.169 654.434C-183.309 653.751 -184.443 653.06 -185.574 652.362L-185.313 651.938C-186.439 651.242 -187.562 650.539 -188.681 649.827L-188.947 650.248C-190.067 649.536 -191.183 648.815 -192.295 648.087L-192.296 648.087L-192.021 647.67C-193.131 646.943 -194.236 646.207 -195.337 645.464L-195.616 645.878C-196.715 645.136 -197.81 644.385 -198.9 643.627L-198.617 643.217C-199.704 642.462 -200.787 641.698 -201.865 640.926L-202.154 641.332C-203.234 640.559 -204.311 639.78 -205.382 638.992L-205.086 638.59C-206.155 637.803 -207.219 637.008 -208.278 636.206L-208.579 636.605C-209.635 635.805 -210.686 634.996 -211.733 634.181L-211.427 633.787C-212.472 632.973 -213.513 632.152 -214.548 631.323L-214.859 631.712C-215.896 630.881 -216.928 630.043 -217.955 629.198L-217.638 628.812C-218.661 627.969 -219.679 627.119 -220.692 626.262L-221.014 626.643C-222.025 625.786 -223.032 624.922 -224.033 624.051L-224.033 624.051L-223.706 623.674C-224.705 622.804 -225.7 621.927 -226.689 621.042L-227.02 621.413C-228.011 620.527 -228.997 619.633 -229.977 618.732L-229.64 618.366C-230.614 617.47 -231.583 616.567 -232.546 615.657L-232.888 616.019C-233.852 615.108 -234.811 614.191 -235.764 613.265L-235.764 613.266L-235.415 612.908C-236.367 611.984 -237.313 611.052 -238.253 610.114L-238.606 610.468C-239.546 609.529 -240.48 608.582 -241.409 607.629L-241.053 607.281C-241.976 606.335 -242.893 605.382 -243.805 604.422L-244.166 604.764C-245.079 603.802 -245.986 602.833 -246.888 601.857L-246.523 601.519C-247.423 600.544 -248.317 599.562 -249.206 598.573L-249.577 598.907C-250.464 597.92 -251.344 596.926 -252.22 595.925L-251.844 595.597C-252.714 594.601 -253.579 593.599 -254.437 592.59L-254.817 592.913C-255.677 591.902 -256.53 590.884 -257.378 589.86L-256.994 589.541C-257.841 588.518 -258.682 587.489 -259.517 586.452L-259.904 586.764C-260.734 585.733 -261.559 584.695 -262.377 583.65L-261.985 583.343C-262.8 582.302 -263.609 581.254 -264.412 580.199L-264.809 580.501C-265.613 579.445 -266.412 578.383 -267.204 577.313L-267.205 577.312L-266.803 577.014C-267.593 575.947 -268.377 574.872 -269.155 573.792L-269.559 574.084Z" stroke="#5797A3" stroke-dasharray="4 4"/>

<defs>
<linearGradient id="paint0_linear_1251_335" x1="-109.027" y1="402.097" x2="103.929" y2="421.773" gradientUnits="userSpaceOnUse">
<stop stop-color="#61D9D8"/>
<stop offset="1" stop-color="#3AB4CD"/>
</linearGradient>
</defs>

<!-- Spiral Inner Dots -->
<g>
  <circle r="5" fill="#F8951C">
    <animateMotion dur="30s" repeatCount="indefinite">
      <mpath href="#spiral_inner"/>
    </animateMotion>
  </circle>
  <circle r="5" fill="#B83F78">
    <animateMotion dur="30s" repeatCount="indefinite" begin="-10s">
      <mpath href="#spiral_inner"/>
    </animateMotion>
  </circle>
  <circle r="5" fill="#5D3681">
    <animateMotion dur="30s" repeatCount="indefinite" begin="-20s">
      <mpath href="#spiral_inner"/>
    </animateMotion>
  </circle>
</g>

<!-- Spiral Outer Dots -->
<g>
  <circle r="5" fill="#5D3681">
    <animateMotion dur="30s" repeatCount="indefinite">
      <mpath href="#spiral_outer"/>
    </animateMotion>
  </circle>
  <circle r="5" fill="#B83F78">
    <animateMotion dur="30s" repeatCount="indefinite" begin="-10s">
      <mpath href="#spiral_outer"/>
    </animateMotion>
  </circle>
  <circle r="5" fill="#F8951C">
    <animateMotion dur="30s" repeatCount="indefinite" begin="-20s">
      <mpath href="#spiral_outer"/>
    </animateMotion>
  </circle>
</g>
</svg>
