<svg width="430" height="588" viewBox="0 0 430 588" fill="none" xmlns="http://www.w3.org/2000/svg">
<path d="M281.189 544.739H256.912L229.463 525.659L230.004 524.88L257.208 543.788H280.851L304.059 524.902L304.66 525.637L281.189 544.739Z" fill="#DB4C14"/>
<path d="M216.166 480.047C219.162 480.047 221.591 477.617 221.591 474.621C221.591 471.625 219.162 469.196 216.166 469.196C213.169 469.196 210.74 471.625 210.74 474.621C210.74 477.617 213.169 480.047 216.166 480.047Z" fill="#DD6912"/>
<path d="M323.355 474.621C323.355 471.623 320.924 469.196 317.93 469.196C314.935 469.196 312.501 471.627 312.501 474.621C312.501 477.615 314.932 480.047 317.93 480.047C320.927 480.047 323.355 477.615 323.355 474.621Z" fill="#DD6912"/>
<path d="M221.594 500.425C221.594 497.427 219.163 494.999 216.168 494.999C213.174 494.999 210.743 497.43 210.743 500.425C210.743 503.419 213.174 505.853 216.168 505.853C219.163 505.853 221.594 503.422 221.594 500.425Z" fill="#DD6912"/>
<path d="M323.355 500.425C323.355 497.427 320.924 494.999 317.93 494.999C314.935 494.999 312.501 497.43 312.501 500.425C312.501 503.419 314.932 505.853 317.93 505.853C320.927 505.853 323.355 503.422 323.355 500.425Z" fill="#DD6912"/>
<path d="M235.159 525.268C235.159 522.27 232.728 519.842 229.734 519.842C226.739 519.842 224.308 522.273 224.308 525.268C224.308 528.262 226.739 530.696 229.734 530.696C232.728 530.696 235.159 528.265 235.159 525.268Z" fill="#DD6912"/>
<path d="M309.787 525.268C309.787 522.27 307.355 519.842 304.361 519.842C301.367 519.842 298.936 522.273 298.936 525.268C298.936 528.262 301.367 530.696 304.361 530.696C307.355 530.696 309.787 528.265 309.787 525.268Z" fill="#DD6912"/>
<path d="M335.097 404.538L334.438 403.851L393.715 347.002L423.563 255.141L393.724 163.314L315.613 106.561H219.058L140.946 163.314L111.108 255.141L140.956 347.002L200.232 403.851L199.574 404.538L140.125 347.521L140.09 347.409L110.112 255.141L110.159 254.994L140.138 162.726L140.262 162.636L218.749 105.61H315.922L394.533 162.726L394.58 162.872L424.559 255.141L424.515 255.287L394.545 347.521L394.459 347.604L335.097 404.538Z" fill="url(#paint0_linear_1251_1286)" stroke="url(#paint1_linear_1251_1286)" stroke-miterlimit="10"/>
<path d="M315.53 450.249H218.565L218.441 449.96L199.44 404.379L200.318 404.013L219.198 449.301H314.897L333.773 404.013L334.652 404.379L315.53 450.249Z" fill="url(#paint2_linear_1251_1286)" stroke="url(#paint3_linear_1251_1286)" stroke-miterlimit="10"/>
<path d="M316.329 450.726L315.04 450.217L199.383 404.509L199.408 404.163L204.694 329.819L139.807 346.868L210.145 251.484L140.612 163.792L141.357 163.203L211.017 251.055L312.421 279.49L312.498 279.551L395.624 346.827L239.538 321.049L316.329 450.726ZM200.522 403.94L314.098 448.824L238.663 321.434L200.522 403.94ZM205.661 329.561L200.535 401.639L237.753 321.128L205.661 329.561ZM239.302 320.046L392.232 345.303L311.976 280.349L211.173 252.083L205.734 328.559L237.88 320.113L237.683 319.779L238.59 319.929L239.468 319.699L239.306 320.05L239.302 320.046ZM210.148 253.072L142.165 345.265L204.764 328.816L210.148 253.072Z" fill="url(#paint4_linear_1251_1286)" stroke="url(#paint5_linear_1251_1286)" stroke-miterlimit="10"/>
<path d="M334.916 405.442L238.211 320.696L238.17 320.591L210.425 251.955L110.627 255.612L110.592 254.663L211.055 250.982L211.179 251.29L238.847 319.738L312.548 279.182L312.663 279.834L334.912 405.439L334.916 405.442ZM239.433 320.505L333.509 402.95L311.845 280.658L239.43 320.505H239.433Z" fill="url(#paint6_linear_1251_1286)" stroke="url(#paint7_linear_1251_1286)" stroke-miterlimit="10"/>
<path d="M312.145 280.824L311.951 280.461L311.715 280.515L311.725 280.038L260.015 183.715L210.177 253.072L218.501 104.372L219.249 105.762L282.067 151.397L315.715 104.572L314.496 174.958L361.391 209.025L393.543 163.225L394.32 163.769L362.158 209.582L425.196 255.376L312.482 280.346L312.145 280.827V280.824ZM361.611 210.362L313.29 279.194L422.927 254.908L361.611 210.365V210.362ZM314.474 176.116L312.701 278.377L360.844 209.799L314.474 176.113V176.116ZM260.629 182.856L311.753 278.09L313.532 175.435L282.274 152.727L260.626 182.852L260.629 182.856ZM219.259 107.796L211.303 249.868L259.512 182.779L219.259 107.796ZM220.28 107.691L260.13 181.923L281.51 152.17L220.28 107.691ZM282.834 151.957L313.554 174.277L314.713 107.598L282.834 151.96V151.957Z" fill="url(#paint8_linear_1251_1286)" stroke="url(#paint9_linear_1251_1286)" stroke-miterlimit="10"/>
<path d="M146.413 163.499C146.413 160.501 143.982 158.073 140.988 158.073C137.993 158.073 135.562 160.504 135.562 163.499C135.562 166.493 137.993 168.928 140.988 168.928C143.982 168.928 146.413 166.496 146.413 163.499Z" fill="#FFC987"/>
<path d="M116.037 255.141C116.037 252.143 113.606 249.715 110.611 249.715C107.617 249.715 105.183 252.146 105.183 255.141C105.183 258.135 107.614 260.566 110.611 260.566C113.609 260.566 116.037 258.135 116.037 255.141Z" fill="#F78B1D"/>
<path d="M140.985 351.492C143.981 351.492 146.41 349.063 146.41 346.067C146.41 343.07 143.981 340.641 140.985 340.641C137.988 340.641 135.559 343.07 135.559 346.067C135.559 349.063 137.988 351.492 140.985 351.492Z" fill="#FFC987"/>
<path d="M205.305 404.194C205.305 401.197 202.874 398.766 199.879 398.766C196.885 398.766 194.454 401.197 194.454 404.194C194.454 407.192 196.885 409.62 199.879 409.62C202.874 409.62 205.305 407.189 205.305 404.194Z" fill="#FFC987"/>
<path d="M339.641 404.194C339.641 401.197 337.21 398.766 334.216 398.766C331.221 398.766 328.79 401.197 328.79 404.194C328.79 407.192 331.221 409.62 334.216 409.62C337.21 409.62 339.641 407.189 339.641 404.194Z" fill="#FFC987"/>
<path d="M393.928 351.492C396.924 351.492 399.353 349.063 399.353 346.067C399.353 343.07 396.924 340.641 393.928 340.641C390.932 340.641 388.502 343.07 388.502 346.067C388.502 349.063 390.932 351.492 393.928 351.492Z" fill="#F78B1D"/>
<path d="M399.357 163.499C399.357 160.501 396.926 158.073 393.931 158.073C390.937 158.073 388.506 160.504 388.506 163.499C388.506 166.493 390.937 168.928 393.931 168.928C396.926 168.928 399.357 166.496 399.357 163.499Z" fill="#FFC987"/>
<path d="M315.212 111.509C318.209 111.509 320.638 109.08 320.638 106.084C320.638 103.087 318.209 100.658 315.212 100.658C312.216 100.658 309.787 103.087 309.787 106.084C309.787 109.08 312.216 111.509 315.212 111.509Z" fill="#F78B1D"/>
<path d="M218.88 111.509C221.876 111.509 224.305 109.08 224.305 106.084C224.305 103.087 221.876 100.658 218.88 100.658C215.883 100.658 213.454 103.087 213.454 106.084C213.454 109.08 215.883 111.509 218.88 111.509Z" fill="#FFC987"/>
<path d="M218.88 455.201C221.876 455.201 224.305 452.771 224.305 449.775C224.305 446.779 221.876 444.35 218.88 444.35C215.883 444.35 213.454 446.779 213.454 449.775C213.454 452.771 215.883 455.201 218.88 455.201Z" fill="#F78B1D"/>
<path d="M315.212 455.201C318.209 455.201 320.638 452.771 320.638 449.775C320.638 446.779 318.209 444.35 315.212 444.35C312.216 444.35 309.787 446.779 309.787 449.775C309.787 452.771 312.216 455.201 315.212 455.201Z" fill="#F78B1D"/>
<path d="M210.74 256.897C213.736 256.897 216.165 254.468 216.165 251.472C216.165 248.475 213.736 246.046 210.74 246.046C207.744 246.046 205.314 248.475 205.314 251.472C205.314 254.468 207.744 256.897 210.74 256.897Z" fill="#F78B1D"/>
<path d="M244.038 320.416C244.038 317.418 241.606 314.99 238.612 314.99C235.618 314.99 233.183 317.421 233.183 320.416C233.183 323.41 235.614 325.841 238.612 325.841C241.61 325.841 244.038 323.41 244.038 320.416Z" fill="#F78B1D"/>
<path d="M312.199 285.345C315.195 285.345 317.624 282.916 317.624 279.92C317.624 276.923 315.195 274.494 312.199 274.494C309.202 274.494 306.773 276.923 306.773 279.92C306.773 282.916 309.202 285.345 312.199 285.345Z" fill="#FFC987"/>
<path d="M429.488 255.141C429.488 252.143 427.057 249.715 424.063 249.715C421.068 249.715 418.637 252.146 418.637 255.141C418.637 258.135 421.068 260.569 424.063 260.569C427.057 260.569 429.488 258.138 429.488 255.141Z" fill="#FFC987"/>
<path d="M423.504 108.713L379.869 70.3546L413.456 51.8165L423.504 108.713Z" fill="white" stroke="url(#paint10_linear_1251_1286)"/>
<path d="M290.689 70.8662L339.035 38.6452L348.248 75.8857L290.689 70.8662Z" fill="white" stroke="url(#paint11_linear_1251_1286)"/>
<path d="M387.051 38.4111L353.066 7.81543L378.95 1.32227L387.051 38.4111Z" fill="white" stroke="url(#paint12_linear_1251_1286)"/>
<path d="M153.709 485.448L94.5033 473.6L115.101 439.461L153.709 485.448Z" fill="white" stroke="url(#paint13_linear_1251_1286)"/>
<path d="M14.6018 520.363L41.3707 466.242L69.0142 494.973L14.6018 520.363Z" fill="white" stroke="url(#paint14_linear_1251_1286)"/>
<path d="M84.4668 441.178L37.9499 431.294L57.8848 411.988L84.4668 441.178Z" fill="white" stroke="url(#paint15_linear_1251_1286)"/>
<path d="M75.9541 539.308L113.509 530.833L90.5935 496.681L75.9541 539.308Z" fill="white" stroke="url(#paint16_linear_1251_1286)"/>
<path d="M50.5043 547.197L17.1658 556.441L41.6626 585.444L50.5043 547.197Z" fill="white" stroke="url(#paint17_linear_1251_1286)"/>
<defs>
<linearGradient id="paint0_linear_1251_1286" x1="146.566" y1="385.659" x2="371.695" y2="142.338" gradientUnits="userSpaceOnUse">
<stop stop-color="#40C5CA"/>
<stop offset="1" stop-color="#24A4DA"/>
</linearGradient>
<linearGradient id="paint1_linear_1251_1286" x1="109.609" y1="255.173" x2="425.062" y2="255.173" gradientUnits="userSpaceOnUse">
<stop stop-color="#40C5CA"/>
<stop offset="1" stop-color="#24A4DA"/>
</linearGradient>
<linearGradient id="paint2_linear_1251_1286" x1="227.093" y1="460.162" x2="452.218" y2="216.844" gradientUnits="userSpaceOnUse">
<stop stop-color="#40C5CA"/>
<stop offset="1" stop-color="#24A4DA"/>
</linearGradient>
<linearGradient id="paint3_linear_1251_1286" x1="198.816" y1="427.058" x2="335.275" y2="427.058" gradientUnits="userSpaceOnUse">
<stop stop-color="#40C5CA"/>
<stop offset="1" stop-color="#24A4DA"/>
</linearGradient>
<linearGradient id="paint4_linear_1251_1286" x1="151.613" y1="390.327" x2="376.741" y2="147.009" gradientUnits="userSpaceOnUse">
<stop stop-color="#40C5CA"/>
<stop offset="1" stop-color="#24A4DA"/>
</linearGradient>
<linearGradient id="paint5_linear_1251_1286" x1="138.617" y1="307.108" x2="397.33" y2="307.108" gradientUnits="userSpaceOnUse">
<stop stop-color="#40C5CA"/>
<stop offset="1" stop-color="#24A4DA"/>
</linearGradient>
<linearGradient id="paint6_linear_1251_1286" x1="159.899" y1="397.992" x2="385.024" y2="154.672" gradientUnits="userSpaceOnUse">
<stop stop-color="#40C5CA"/>
<stop offset="1" stop-color="#24A4DA"/>
</linearGradient>
<linearGradient id="paint7_linear_1251_1286" x1="110.099" y1="328.597" x2="335.625" y2="328.597" gradientUnits="userSpaceOnUse">
<stop stop-color="#40C5CA"/>
<stop offset="1" stop-color="#24A4DA"/>
</linearGradient>
<linearGradient id="paint8_linear_1251_1286" x1="138.423" y1="378.12" x2="363.549" y2="134.802" gradientUnits="userSpaceOnUse">
<stop stop-color="#40C5CA"/>
<stop offset="1" stop-color="#24A4DA"/>
</linearGradient>
<linearGradient id="paint9_linear_1251_1286" x1="209.607" y1="192.192" x2="426.332" y2="192.192" gradientUnits="userSpaceOnUse">
<stop stop-color="#40C5CA"/>
<stop offset="1" stop-color="#24A4DA"/>
</linearGradient>
<linearGradient id="paint10_linear_1251_1286" x1="401.659" y1="50.3292" x2="401.659" y2="111.232" gradientUnits="userSpaceOnUse">
<stop stop-color="#40C5CA"/>
<stop offset="1" stop-color="#24A4DA"/>
</linearGradient>
<linearGradient id="paint11_linear_1251_1286" x1="352.738" y1="64.8763" x2="293.911" y2="49.1136" gradientUnits="userSpaceOnUse">
<stop stop-color="#40C5CA"/>
<stop offset="1" stop-color="#24A4DA"/>
</linearGradient>
<linearGradient id="paint12_linear_1251_1286" x1="369.988" y1="0" x2="369.988" y2="41.0246" gradientUnits="userSpaceOnUse">
<stop stop-color="#40C5CA"/>
<stop offset="1" stop-color="#24A4DA"/>
</linearGradient>
<linearGradient id="paint13_linear_1251_1286" x1="103.728" y1="444.279" x2="135.333" y2="499.02" gradientUnits="userSpaceOnUse">
<stop stop-color="#40C5CA"/>
<stop offset="1" stop-color="#24A4DA"/>
</linearGradient>
<linearGradient id="paint14_linear_1251_1286" x1="67.305" y1="482.742" x2="6.2487" y2="499.102" gradientUnits="userSpaceOnUse">
<stop stop-color="#40C5CA"/>
<stop offset="1" stop-color="#24A4DA"/>
</linearGradient>
<linearGradient id="paint15_linear_1251_1286" x1="49.1428" y1="415.477" x2="70.4323" y2="452.351" gradientUnits="userSpaceOnUse">
<stop stop-color="#40C5CA"/>
<stop offset="1" stop-color="#24A4DA"/>
</linearGradient>
<linearGradient id="paint16_linear_1251_1286" x1="100.797" y1="513.311" x2="77.2109" y2="554.164" gradientUnits="userSpaceOnUse">
<stop stop-color="#40C5CA"/>
<stop offset="1" stop-color="#24A4DA"/>
</linearGradient>
<linearGradient id="paint17_linear_1251_1286" x1="29.2628" y1="571.668" x2="48.7378" y2="533.804" gradientUnits="userSpaceOnUse">
<stop stop-color="#40C5CA"/>
<stop offset="1" stop-color="#24A4DA"/>
</linearGradient>
</defs>
</svg>
