<svg width="38" height="34" viewBox="0 0 38 34" fill="none" xmlns="http://www.w3.org/2000/svg">
<g clip-path="url(#clip0_1251_386)">
<path d="M27.3269 18.6319C27.3159 18.5921 27.2938 18.558 27.2608 18.5409C27.1066 18.4442 27.1948 18.5238 27.0956 18.3704C27.057 18.3021 26.9745 18.285 26.9083 18.3192L22.9432 20.9061L18.4272 18.069C18.3721 18.0349 18.3005 18.0406 18.2509 18.0917C18.2069 18.1372 18.1959 18.2168 18.229 18.2737L18.2399 18.2908L22.6733 25.9663C22.7008 26.0118 22.7449 26.0346 22.7945 26.0346C22.844 26.0346 22.8881 26.0061 22.9156 25.9663L22.9596 25.8924L27.3049 18.7512C27.3269 18.7115 27.3324 18.6716 27.3269 18.6319ZM26.9909 18.7115L22.7945 25.6024L22.6788 25.4091L22.6457 25.3523L18.7796 18.6319L22.8661 21.2018C22.9101 21.2302 22.9652 21.2302 23.0092 21.2074L26.9359 18.6432C26.9304 18.6376 27.002 18.7115 26.9909 18.7115Z" fill="#6E41AD"/>
<path d="M27.2003 18.7399L20.6411 13.7309L27.2388 10.5981C27.3324 10.5469 27.4481 10.6152 27.4481 10.7232L27.2003 18.7399ZM21.1808 13.7763L26.9083 18.1486L27.1782 11.2064C27.1782 11.0984 27.0625 11.0301 26.969 11.0813L21.1808 13.7763Z" fill="#6E41AD"/>
<path d="M27.0902 31.7827L27.0571 27.672L33.44 24.7041L26.947 18.5637L31.92 12.3038L27.2609 10.8255C27.1563 10.7914 27.1287 10.6549 27.2113 10.5753L30.1192 7.21514L27.8557 1.20544H36.9151L30.4551 7.30042L32.267 12.1161L32.2891 12.1218L32.3 12.1957L32.3221 12.2583L32.3055 12.2753L33.8255 24.67L33.9467 24.7837L27.338 27.854L27.3711 31.7714L27.0902 31.7827ZM27.338 18.5409L33.5007 24.3744L32.0578 12.5995L27.338 18.5409ZM27.8171 10.7118L31.92 12.0025L30.2293 7.51648L27.7621 10.4616C27.685 10.5356 27.7125 10.672 27.8171 10.7118ZM28.2687 1.49541L30.345 7.00477L36.1771 1.49541H28.2687Z" fill="#6E41AD"/>
<path d="M36.5076 20.4114L31.9641 12.1786L36.5681 9.64282L36.7003 9.89869L32.3606 12.2923L36.7554 20.2635L36.5076 20.4114Z" fill="#6E41AD"/>
<path d="M27.0847 27.8254L27.1673 18.3987C27.1673 18.3191 27.2278 18.2509 27.3049 18.2509C27.382 18.2509 27.4482 18.3135 27.4482 18.393L27.3711 27.8198L27.0847 27.8254Z" fill="#6E41AD"/>
<path d="M33.8245 24.6914L33.5615 24.8086L36.5014 31.8399L36.7643 31.7227L33.8245 24.6914Z" fill="#6E41AD"/>
<path d="M27.3323 31.8794L27.123 31.6803L33.6216 24.6586L36.7772 19.8599V31.7827H36.4909V20.8151L33.8474 24.8406L33.8364 24.8519L27.3323 31.8794Z" fill="#6E41AD"/>
<path d="M27.3103 10.7288C27.2332 10.7174 27.1782 10.6435 27.1891 10.5639L27.9051 1.33044L28.186 1.37025L27.47 10.6037C27.459 10.6833 27.3874 10.7401 27.3103 10.7288Z" fill="#6E41AD"/>
<path d="M36.7773 1.34747H36.491V20.3375H36.7773V1.34747Z" fill="#6E41AD"/>
<path d="M36.6342 31.6348H27.2278V31.9305H36.6342V31.6348Z" fill="#6E41AD"/>
<path d="M27.1452 18.6943L20.6467 13.7308L20.8119 13.6398L28.2743 0.665222L27.4481 10.7458C27.4426 10.7913 27.4151 10.8368 27.371 10.8595L21.1754 13.7763L27.3105 18.4612L27.1452 18.6943ZM27.8172 2.03546L21.291 13.3783L27.1122 10.6662C27.1507 10.6435 27.1838 10.6037 27.1893 10.5525L27.8172 2.03546Z" fill="#6E41AD"/>
<path d="M18.4768 18.268L18.229 18.1144L20.8285 13.6058H20.911V13.7535L21.0322 13.8275L18.4768 18.268Z" fill="#6E41AD"/>
<path d="M27.6904 18.7456L27.0516 18.7172V18.6262L26.969 18.5637L27.0626 18.4329V18.4215H27.0681L27.1397 18.3249L27.6904 18.7456Z" fill="#6E41AD"/>
<path d="M21.0322 13.8274L20.7898 13.6797L28.2852 0.648193L28.1805 1.41006L28.131 1.40438L28.1696 1.42712L21.0322 13.8274Z" fill="#6E41AD"/>
<path d="M22.9377 25.8866L22.6514 25.8809L22.7946 21.0937L20.7734 13.7933L21.0488 13.7137L23.081 21.0538L22.9377 25.8866Z" fill="#6E41AD"/>
<path d="M28.1309 18.5806C28.1309 18.8308 28.0318 19.0639 27.8776 19.2288C27.7124 19.4051 27.481 19.5131 27.2277 19.5131C27.1947 19.5131 27.1562 19.5131 27.1231 19.5074C26.9909 19.4903 26.8643 19.4448 26.7541 19.3766C26.633 19.3027 26.5338 19.1947 26.4567 19.0753C26.3687 18.9331 26.3191 18.7625 26.3191 18.5806C26.3191 18.3702 26.3851 18.1826 26.4953 18.0234C26.633 17.8302 26.8422 17.6936 27.0846 17.6539C27.1287 17.6482 27.1727 17.6425 27.2222 17.6425C27.4205 17.6425 27.6022 17.7051 27.7509 17.8187C27.9822 17.9893 28.1309 18.2679 28.1309 18.5806Z" fill="#E03C32"/>
<path d="M20.911 14.5836C21.3551 14.5836 21.7151 14.2119 21.7151 13.7534C21.7151 13.295 21.3551 12.9234 20.911 12.9234C20.4669 12.9234 20.1069 13.295 20.1069 13.7534C20.1069 14.2119 20.4669 14.5836 20.911 14.5836Z" fill="#7BB662"/>
<path d="M32.1623 13.2191C32.6733 13.2191 33.0875 12.7915 33.0875 12.264C33.0875 11.7364 32.6733 11.3088 32.1623 11.3088C31.6513 11.3088 31.2371 11.7364 31.2371 12.264C31.2371 12.7915 31.6513 13.2191 32.1623 13.2191Z" fill="#FFB703"/>
<path d="M28.6438 11.1777C28.8842 10.4329 28.4944 9.6279 27.7729 9.3797C27.0516 9.1315 26.2719 9.53401 26.0315 10.2788C25.791 11.0235 26.1809 11.8285 26.9023 12.0767C27.6237 12.3249 28.4034 11.9224 28.6438 11.1777Z" fill="#E03C32"/>
<path d="M30.3394 7.94848C30.6952 7.94848 30.9837 7.65065 30.9837 7.28326C30.9837 6.91587 30.6952 6.61804 30.3394 6.61804C29.9835 6.61804 29.6951 6.91587 29.6951 7.28326C29.6951 7.65065 29.9835 7.94848 30.3394 7.94848Z" fill="#FFB703"/>
<path d="M23.9236 21.0766C23.9236 21.6849 23.4059 22.1681 22.8001 22.0829C22.3045 22.0146 21.9354 21.5485 21.9575 21.0367C21.963 20.8605 22.0125 20.6956 22.1007 20.5477C22.2714 20.2521 22.5853 20.0588 22.9433 20.0588C23.3453 20.0588 23.6923 20.309 23.8465 20.6672C23.8961 20.7923 23.9236 20.9287 23.9236 21.0766Z" fill="#FFB703"/>
<path d="M28.0429 2.35389C28.5813 2.35389 29.0177 1.90333 29.0177 1.34755C29.0177 0.791747 28.5813 0.341187 28.0429 0.341187C27.5045 0.341187 27.0681 0.791747 27.0681 1.34755C27.0681 1.90333 27.5045 2.35389 28.0429 2.35389Z" fill="#FFB703"/>
<path d="M27.2278 28.5589C27.6202 28.5589 27.9382 28.2305 27.9382 27.8254C27.9382 27.4203 27.6202 27.0919 27.2278 27.0919C26.8354 27.0919 26.5173 27.4203 26.5173 27.8254C26.5173 28.2305 26.8354 28.5589 27.2278 28.5589Z" fill="#FF9A3E"/>
<path d="M36.3533 2.69498C37.0742 2.69498 37.6585 2.09169 37.6585 1.34749C37.6585 0.603293 37.0742 0 36.3533 0C35.6325 0 35.0481 0.603293 35.0481 1.34749C35.0481 2.09169 35.6325 2.69498 36.3533 2.69498Z" fill="#E03C32"/>
<path d="M33.732 26.2278C34.5227 26.2278 35.1638 25.5659 35.1638 24.7495C35.1638 23.9331 34.5227 23.2712 33.732 23.2712C32.9412 23.2712 32.3 23.9331 32.3 24.7495C32.3 25.5659 32.9412 26.2278 33.732 26.2278Z" fill="#E03C32"/>
<path d="M36.6343 21.7475C37.3886 21.7475 38.0001 21.1162 38.0001 20.3374C38.0001 19.5586 37.3886 18.9274 36.6343 18.9274C35.88 18.9274 35.2686 19.5586 35.2686 20.3374C35.2686 21.1162 35.88 21.7475 36.6343 21.7475Z" fill="#7BB662"/>
<path d="M28.3092 32.1538C28.5083 31.5372 28.1855 30.8707 27.5882 30.6651C26.9909 30.4596 26.3453 30.7928 26.1462 31.4095C25.9471 32.0262 26.27 32.6927 26.8672 32.8982C27.4645 33.1038 28.1102 32.7705 28.3092 32.1538Z" fill="#FFB703"/>
<path d="M36.6341 32.9596C37.2638 32.9596 37.7741 32.4327 37.7741 31.7827C37.7741 31.1327 37.2638 30.6058 36.6341 30.6058C36.0045 30.6058 35.4941 31.1327 35.4941 31.7827C35.4941 32.4327 36.0045 32.9596 36.6341 32.9596Z" fill="#FFB703"/>
<path d="M18.3943 32.4819L23.0424 25.2214C23.0864 25.1532 23.1746 25.1362 23.2406 25.1816C23.3068 25.2271 23.3233 25.3181 23.2792 25.3863L18.4493 32.8572L18.3943 32.4819Z" fill="#6E41AD"/>
<path d="M16.3677 24.6187L22.6018 25.7445C22.6789 25.7275 22.756 25.7843 22.7671 25.8639C22.7837 25.9435 22.7285 26.0231 22.6514 26.0344L16.1418 24.9258L16.3677 24.6187Z" fill="#6E41AD"/>
<path d="M0 1.25085V32.8572H9.40086L9.32376 1.25085H0ZM0 1.25085V32.8572H9.40086L9.32376 1.25085H0ZM9.32376 1.25085V17.6425L18.4547 32.8572V18.0917L9.32376 1.25085Z" fill="url(#paint0_linear_1251_386)"/>
<path d="M9.32376 1.25085L9.40086 32.8572H0V1.25085H9.32376Z" fill="url(#paint1_linear_1251_386)"/>
<path d="M22.7669 26.5746C23.211 26.5746 23.571 26.2029 23.571 25.7444C23.571 25.286 23.211 24.9143 22.7669 24.9143C22.3229 24.9143 21.9629 25.286 21.9629 25.7444C21.9629 26.2029 22.3229 26.5746 22.7669 26.5746Z" fill="#7BB662"/>
<path d="M9.40086 22.117H0V32.8572H9.40086V22.117Z" fill="url(#paint2_linear_1251_386)"/>
<path d="M18.4547 32.8572L9.32373 17.6425V1.25085L18.2785 17.904L18.3721 18.0803L18.3776 18.0917V18.0973H18.3831L18.4382 18.194L18.4547 32.8572Z" fill="url(#paint3_linear_1251_386)"/>
</g>
<defs>
<linearGradient id="paint0_linear_1251_386" x1="17.9704" y1="17.2692" x2="3.40051" y2="17.0482" gradientUnits="userSpaceOnUse">
<stop offset="0.2297" stop-color="#8C41AD"/>
<stop offset="0.728" stop-color="#6E41AD"/>
</linearGradient>
<linearGradient id="paint1_linear_1251_386" x1="4.70043" y1="0.629244" x2="4.70043" y2="34.1187" gradientUnits="userSpaceOnUse">
<stop stop-color="#8C41AD"/>
<stop offset="0.9659" stop-color="#6E41AD"/>
<stop offset="1"/>
</linearGradient>
<linearGradient id="paint2_linear_1251_386" x1="4.70043" y1="21.9047" x2="4.70043" y2="33.2873" gradientUnits="userSpaceOnUse">
<stop offset="5.43435e-07" stop-opacity="0"/>
<stop offset="1" stop-opacity="0.2"/>
</linearGradient>
<linearGradient id="paint3_linear_1251_386" x1="11.1456" y1="17.054" x2="8.34438" y2="17.054" gradientUnits="userSpaceOnUse">
<stop offset="5.43435e-07" stop-opacity="0"/>
<stop offset="1" stop-opacity="0.3"/>
</linearGradient>
<clipPath id="clip0_1251_386">
<rect width="38" height="34" fill="white"/>
</clipPath>
</defs>
</svg>
